<svg width="60" height="56" viewBox="0 0 60 56" fill="none" xmlns="http://www.w3.org/2000/svg">
<g clip-path="url(#clip0_1_113)">
<path fill-rule="evenodd" clip-rule="evenodd" d="M41.7989 36.9341L56.3697 51.5049C56.8819 52.0174 57.1694 52.7124 57.1692 53.4369C57.1689 54.1615 56.8809 54.8562 56.3684 55.3684C55.8559 55.8805 55.1609 56.1681 54.4364 56.1678C53.7118 56.1676 53.0171 55.8795 52.5049 55.367L37.9341 40.7962C33.5783 44.1699 28.1009 45.7575 22.6161 45.2361C17.1313 44.7147 12.0512 42.1233 8.40916 37.9893C4.76712 33.8552 2.83678 28.489 3.01082 22.9822C3.18486 17.4755 5.45022 12.2418 9.34603 8.34603C13.2418 4.45022 18.4755 2.18486 23.9822 2.01082C29.489 1.83678 34.8552 3.76712 38.9893 7.40915C43.1233 11.0512 45.7147 16.1313 46.2361 21.6161C46.7575 27.1009 45.1699 32.5783 41.7962 36.9341M24.6687 39.916C28.9785 39.916 33.1117 38.2039 36.1592 35.1565C39.2066 32.109 40.9187 27.9757 40.9187 23.666C40.9187 19.3562 39.2066 15.223 36.1592 12.1755C33.1117 9.12802 28.9785 7.41597 24.6687 7.41597C20.3589 7.41597 16.2257 9.12802 13.1782 12.1755C10.1307 15.223 8.41868 19.3562 8.41868 23.666C8.41868 27.9757 10.1307 32.109 13.1782 35.1565C16.2257 38.2039 20.3589 39.916 24.6687 39.916Z" fill="#363437"/>
</g>
<defs>
<clipPath id="clip0_1_113">
<rect width="60" height="56" fill="white"/>
</clipPath>
</defs>
</svg>
